# xmcd
#
# Track frame offsets: 
#        150
#        18480
#        33352
#        48975
#        75182
#        89272
#        107180
#        128840
#        141422
#        166992
#        187272
#        199762
#        211482
#        244485
#        262087
#        273807
#
# Disc length: 3898 seconds
#
# Revision: 18
# Processed by: cddbd v1.5.2PL0 Copyright (c) Steve Scherf et al.
# Submitted via: ExactAudioCopy v0.99pb3
#
DISCID=e70f3810
DTITLE=Gal Costa - Acustico MTV
DYEAR=1998
DGENRE=MPB
TTITLE0=Baby
TTITLE1=Coracao Vagabundo
TTITLE2=Nao Identificado
TTITLE3=London, London
TTITLE4=Soh Louco
TTITLE5=Barato Total
TTITLE6=Lanterna dos Afogados
TTITLE7=Teco-teco
TTITLE8=Perola Negra - Como 2 e 2
TTITLE9=Sua Estupidez
TTITLE10=Falsa Baiana
TTITLE11=Camisa Amarela
TTITLE12=Vapor Barato - Flor da Pele
TTITLE13=Voce Nao Entende Nada
TTITLE14=Paula e Bebeto
TTITLE15=Aquarela do Brasil
EXTD=YEAR: 1998
EXTT0=
EXTT1=
EXTT2=
EXTT3=
EXTT4=
EXTT5=
EXTT6=
EXTT7=
EXTT8=
EXTT9=
EXTT10=
EXTT11=
EXTT12=
EXTT13=
EXTT14=
EXTT15=
PLAYORDER=
